<?xml version="1.0" standalone="no"?>
<!DOCTYPE svg PUBLIC "-//W3C//DTD SVG 1.1//EN" "http://www.w3.org/Graphics/SVG/1.1/DTD/svg11.dtd">
<svg xmlns="http://www.w3.org/2000/svg">
<metadata>Copyright (C) 2014 by original authors @ fontello.com</metadata>
<defs>
<font id="fontello" horiz-adv-x="1000" >
<font-face font-family="fontello" font-weight="400" font-stretch="normal" units-per-em="1000" ascent="850" descent="-150" />
<missing-glyph horiz-adv-x="1000" />
<glyph glyph-name="search-01" unicode="&#xe800;" d="m913 50l-150 150c37 58 58 129 58 204 0 209-167 375-375 375-208 0-375-166-375-375s167-375 375-375c87 0 167 29 229 79l146-146c12-12 29-16 46-16 16 0 33 4 46 16 25 25 25 63 0 88z m-467 104c-138 0-250 113-250 250s112 250 250 250 250-112 250-250-113-250-250-250z" horiz-adv-x="1000" />
<glyph glyph-name="menu" unicode="&#xe801;" d="m0 29v71q0 15 11 25t25 11h785q15 0 26-11t10-25v-71q0-15-10-26t-26-10h-785q-15 0-25 10t-11 26z m0 285v72q0 14 11 25t25 10h785q15 0 26-10t10-25v-72q0-14-10-25t-26-10h-785q-15 0-25 10t-11 25z m0 286v71q0 15 11 26t25 10h785q15 0 26-10t10-26v-71q0-15-10-25t-26-11h-785q-15 0-25 11t-11 25z" horiz-adv-x="857.1" />
<glyph glyph-name="about" unicode="&#xe802;" d="m812 68l-104 121 0 0 0 0c-76-25-169-36-265-36-98 0-191 14-271 38v-2h-2l-104-121 63-54 73 84c74-16 156-27 244-27 84 0 164 8 238 27l73-82 55 52z m-374 555c82 0 150-68 150-150s-68-150-150-150-151 68-151 150 69 150 151 150m0 83c-129 0-233-104-233-233s104-232 233-232 232 104 232 232-104 233-232 233l0 0z" horiz-adv-x="875" />
<glyph glyph-name="favorites" unicode="&#xe803;" d="m319 581l115-109 66-63 66 63 115 109 150-150-331-334-331 331 150 153m-3 132l-282-282 466-469 463 466-282 281-181-171-184 175 0 0z" horiz-adv-x="1000" />
<glyph glyph-name="products" unicode="&#xe804;" d="m500 678l281-162v-332l-281-162-281 162v332l281 162m0 110l-375-219v-438l375-219 375 219v438l-375 219 0 0z" horiz-adv-x="1000" />
<glyph glyph-name="-cloudy" unicode="&#xe805;" d="m531 602c7 0 14 6 14 15v55c0 8-5 15-14 15s-15-6-15-15v-55c2-7 8-15 15-15z m292-210h-56c-7 0-14-5-14-14 0-8 5-15 14-15h56c7 0 14 6 14 15 0 8-7 14-14 14z m-299-364c83 0 153 73 153 159 0 36-13 70-34 96 35 31 54 74 54 122 0 91-73 164-162 164-68 0-131-45-153-111-71-2-131-51-146-120-14 5-30 8-46 8-84 0-154-73-154-159s70-159 154-159h334z m13 512c74 0 134-62 134-136 0-39-16-76-45-102-25 23-57 39-92 41-16 57-63 99-120 109 19 53 67 88 123 88z m-471-355c0 70 57 130 125 130 18 0 35-4 51-12 5-1 9-1 13 0 5 2 6 6 8 11 7 64 59 112 123 112 60 0 111-42 123-101 1-7 7-11 13-11 2 0 3 0 3 0 67 0 125-60 125-130s-56-130-125-130h-334c-67 1-125 61-125 131z m296 355c3-3 6-5 10-5 4 0 7 2 10 5 6 5 6 14 0 20l-41 38c-6 6-14 6-19 0s-5-15 0-20l40-38z m342-5c3 0 8 2 11 5l39 39c6 6 6 15 0 20-6 6-15 6-19 0l-39-39c-6-6-6-15 0-20 3-3 5-5 8-5z m8-293l39-39c3-3 6-5 10-5 3 0 8 2 10 5 6 6 6 14 0 20l-39 40c-6 5-14 5-19 0-7-8-7-17-1-21z" horiz-adv-x="875" />
<glyph glyph-name="-light-rain" unicode="&#xe806;" d="m273 206h331c86 0 151 90 151 170 0 78-61 165-142 171-18 66-78 111-146 111-72 0-132-50-148-118-14 4-30 7-45 7-86 0-151-91-151-171-2-80 62-170 150-170z m0 313c17 0 35-4 51-11 4-2 9-2 13 0 4 2 6 5 7 10 8 64 60 111 123 111 58 0 109-43 121-101 1-7 7-12 14-12 2 0 2 0 3 0 70 0 124-77 124-143s-57-140-127-140h-329c-70 0-124 78-124 143 0 66 54 143 124 143z m163-369v-111c0-7 6-14 13-14s13 6 13 14v111c0 8-5 15-13 15s-13-6-13-15z m-127 0v-55c0-8 6-15 13-15s13 6 13 15v55c0 8-5 15-13 15s-13-6-13-15z m254 0v-55c0-8 6-15 13-15 7 0 13 6 13 15v55c0 8-6 15-13 15-7 0-13-6-13-15z" horiz-adv-x="875" />
<glyph glyph-name="-light-snow" unicode="&#xe807;" d="m273 211h331c80 0 151 79 151 170 0 87-65 163-142 167-18 66-78 113-146 113-72 0-132-51-148-120-14 4-30 7-45 7-80 0-151-78-151-169-2-89 68-168 150-168z m0 310c17 0 35-5 51-12 4-1 9-1 13 0 4 3 6 6 7 10 8 64 60 113 123 113 58 0 109-43 121-103 1-7 7-11 14-11 2 0 2 0 3 0 72 0 124-75 124-140s-52-140-124-140h-332c-72 0-124 74-124 140 0 68 52 143 124 143z m151-368c0-7 6-14 14-14s13 5 13 14c0 9-6 15-13 15s-14-8-14-15z m137 3c0-7 6-14 14-14s13 5 13 14c0 9-6 15-13 15-8-2-14-8-14-15z m-135-92c0 8-6 15-13 15-8 0-13-6-13-15 0-9 5-14 13-14 7 0 13 7 13 14z m-140 92c0-7 6-14 13-14s13 5 13 14c0 9-6 15-13 15-7-2-13-8-13-15z" horiz-adv-x="875" />
<glyph glyph-name="-overcast" unicode="&#xe808;" d="m812 404c0 63-49 115-113 121-16 51-63 86-117 86-57 0-105-38-118-92-13 3-26 6-41 6-74 0-137-51-155-121-16 4-32 7-48 7-86 0-159-73-159-160s73-161 159-161h346c86 0 159 73 159 161 0 13-2 25-5 36 54 13 92 62 92 117z m-245-286h-345c-70 0-130 60-130 133 0 71 60 133 130 133 17 0 36-5 54-12 4-2 8-2 13 0 4 3 7 6 7 10 7 66 63 114 128 114 62 0 116-44 127-104 2-7 8-11 15-11 1 0 1 0 3 0 70 0 130-60 130-133s-62-130-132-130z m145 201c-24 54-76 94-136 97-13 43-44 80-84 99 8 42 46 73 90 73s83-31 92-75c1-7 9-11 16-11 51 0 93-43 93-94 0-42-29-80-71-89z" horiz-adv-x="875" />
<glyph glyph-name="-sleet" unicode="&#xe809;" d="m328 204c0 8-6 15-13 15-7 0-13-6-13-15v-111c0-7 6-14 13-14 7 0 13 6 13 14v111z m165 0c0 8-6 15-13 15s-13-6-13-15v-111c0-7 6-14 13-14s13 6 13 14v111z m-83 0c0 8-6 15-13 15s-13-6-13-15v-55c0-8 5-15 13-15s13 6 13 15v55z m165 0c0 8-6 15-14 15s-13-6-13-15v-55c0-8 6-15 13-15s14 6 14 15v55z m175 217c0 85-65 157-143 162-18 66-78 113-146 113-72 0-131-50-147-118-15 4-31 7-46 7-83-3-151-76-151-164s70-161 151-161h330c82 0 152 74 152 161z m-606 0c0 72 59 135 124 135 18 0 35-5 51-12 5-1 9-1 14 0 4 3 5 6 7 10 7 64 60 111 122 111 59 0 110-42 121-101 2-7 8-11 15-11 1 0 1 0 3 0 66 0 124-63 124-134s-59-135-124-135h-333c-67 3-124 66-124 137z m250-332c-8 0-13-6-13-15 0-8 5-14 13-14 7 0 13 6 13 14 0 9-4 15-13 15z m166 0c-7 0-13-6-13-15 0-8 6-14 13-14 7 0 13 6 13 14 0 9-6 15-13 15z m-83-55c-7 0-13-6-13-15s6-15 13-15 13 6 13 15c0 9-6 15-13 15z m-165 0c-7 0-13-6-13-15s6-15 13-15 13 6 13 15c0 9-6 15-13 15z" horiz-adv-x="875" />
<glyph glyph-name="dusty" unicode="&#xe80a;" d="m130 311c7 0 13 5 13 14 0 73 57 134 124 134 17 0 35-4 51-11 4-2 9-2 13 0 4 3 6 6 7 10 8 64 60 114 123 114 58 0 109-43 121-102 1-8 7-12 14-12 2 0 2 0 3 0 67 0 124-61 124-134 0-8 6-15 13-15 8 0 14 6 14 15 0 84-65 157-143 162-18 65-78 113-146 113-72 0-131-51-147-121-15 5-31 8-46 8-83 1-151-73-151-161 0-7 6-14 13-14z m3-73h605c7 0 13 6 13 14s-6 15-13 15h-605c-8 0-13-6-13-15s4-14 13-14z m0-63h605c7 0 13 7 13 15 0 8-6 14-13 14h-605c-8 0-13-7-13-14s4-15 13-15z m0-67h605c7 0 13 6 13 13s-6 13-13 13h-605c-8 0-13-6-13-13-2-7 4-13 13-13z" horiz-adv-x="875" />
<glyph glyph-name="fog" unicode="&#xe80b;" d="m236 373c8 0 13 6 13 13 0 107 86 193 193 193s192-86 192-193c0-7 6-13 14-13s13 6 13 13c0 122-100 221-221 221s-220-99-220-221c2-7 8-13 16-13z m355-176c5 6 5 13 1 19-4 6-13 6-19 1-35-32-82-49-130-49s-94 17-129 49c-6 5-15 5-19-1-6-6-5-15 1-19 41-37 93-57 149-57 52-1 105 19 146 57z m-420 111h551c7 0 13 6 13 13 0 7-6 14-15 14h-549c-8 0-13-5-13-13s5-14 13-14z m468-28h-387c-7 0-13-6-13-13s6-13 13-13h385c8 0 13 6 13 13s-4 13-11 13z" horiz-adv-x="875" />
<glyph glyph-name="heavy-rain" unicode="&#xe80c;" d="m771 404c0 83-64 153-141 157-17 65-77 111-144 111-70 0-130-49-146-118-15 5-31 8-45 8-82 0-151-73-151-159s69-159 151-159h326c82 2 150 75 150 160z m-599 0c0 71 56 131 123 131 17 0 33-4 51-11 4-2 8-2 11 0 5 1 6 5 8 10 7 62 58 111 121 111 58 0 108-43 119-100 2-7 6-10 13-11 2 0 2 0 3 0 67 0 123-60 123-131s-56-132-123-132h-326c-67 3-123 63-123 133z m98-203c-6 6-15 6-19 0l-69-68c-5-6-5-15 0-19 3-3 6-5 11-5 4 0 7 2 10 5l68 68c5 5 5 13-1 19z m109 0c-6 6-14 6-19 0l-68-68c-6-6-6-15 0-19 3-3 6-5 10-5 4 0 7 2 10 5l69 68c4 5 4 13-2 19z m110 0c-6 6-15 6-19 0l-69-68c-6-6-6-15 0-19 3-3 6-5 10-5 5 0 8 2 10 5l69 68c3 5 3 13-1 19z m89 0l-69-68c-6-6-6-15 0-19 3-3 6-5 10-5s7 2 10 5l69 68c6 6 6 15 0 19-6 5-15 5-20 0z m-110-111l-28-27c-5-6-5-15 0-19 3-3 6-5 11-5s7 2 10 5l28 28c5 5 5 14 0 18-6 6-15 6-21 0z m-108 0l-27-27c-6-6-6-15 0-19 2-3 5-5 10-5 4 0 7 2 10 5l28 27c5 6 5 15 0 19-8 6-16 6-21 0z m-109 0l-28-27c-6-6-6-15 0-19 3-3 6-5 10-5 5 0 8 2 11 5l27 27c6 6 6 15 0 19-6 6-14 6-20 0z m-110 0l-27-27c-6-6-6-15 0-19 3-3 6-5 10-5 4 0 7 2 10 5l28 27c6 6 6 15 0 19-6 5-15 6-21 0z" horiz-adv-x="875" />
<glyph glyph-name="heavy-snow" unicode="&#xe80d;" d="m258 223h331c80 0 152 79 152 169 0 88-66 164-143 168-18 66-77 112-146 112-71 0-131-51-147-119-15 4-31 7-45 7-81 0-152-79-152-169-2-89 70-168 150-168z m0 309c18 0 35-4 51-11 5-2 9-2 13 0 5 3 6 5 8 10 7 64 59 112 122 112 58 0 109-42 121-102 2-7 7-12 15-12 1 0 1 0 3 0 71 0 124-74 124-140s-53-140-124-140h-333c-71 0-124 75-124 140 0 69 53 143 124 143z m308-491c0-7 6-15 13-15s13 6 13 15-6 14-13 14-13-7-13-14z m-293 65c0-7 6-14 13-14 7 0 13 6 13 14 0 9-6 15-13 15-7-1-13-7-13-15z m73 30c0-8 5-15 13-15 7 0 13 6 13 15s-6 14-13 14c-8-1-13-7-13-14z m145 0c0-8 6-15 14-15 7 0 13 6 13 15s-6 14-13 14c-8-1-14-7-14-14z m-145-73c0-8 5-15 13-15 7 0 13 6 13 15 0 8-6 14-13 14-8-1-13-7-13-14z m145 0c0-8 6-15 14-15 7 0 13 6 13 15 0 8-6 14-13 14-8-1-14-7-14-14z m-70 43c0-7 6-14 14-14 7 0 13 6 13 14 0 9-6 15-13 15-6-1-14-7-14-15z m28 60c0 8-6 15-13 15-7 0-13-6-13-15s6-14 13-14c7 0 13 7 13 14z m117 2c0-8 6-15 13-15s13 6 13 15c0 8-6 14-13 14-6-1-13-7-13-14z m-117-126c0 8-6 15-13 15-7 0-13-6-13-15s6-14 13-14c7 0 13 6 13 14z m-176 126c0-8 6-15 13-15 7 0 13 6 13 15 0 8-6 14-13 14-7-1-13-7-13-14z m0-126c0-7 6-14 13-14 7 0 13 6 13 14s-6 15-13 15c-7-2-13-7-13-15z m293 64c0-7 6-14 13-14s13 6 13 14c0 9-6 15-13 15-6-1-13-7-13-15z" horiz-adv-x="875" />
<glyph glyph-name="moderate-rain" unicode="&#xe80e;" d="m260 226h331c86 0 151 91 151 171 0 77-61 165-143 170-17 66-77 111-145 111-72 0-132-49-148-118-14 4-30 7-45 7-86 0-152-90-152-170-1-81 65-171 151-171z m0 314c17 0 35-5 51-12 4-2 8-2 13 0 4 3 6 6 7 10 7 64 60 111 123 111 58 0 109-42 121-101 1-7 7-11 14-11 2 0 2 0 3 0 70 0 124-78 124-143s-54-143-124-143h-332c-70 0-124 77-124 143 0 68 54 146 124 146z m27-369v-111c0-7 6-15 13-15s14 6 14 15v111c0 7-6 14-14 14-7-1-13-7-13-14z m165 0v-111c0-7 6-15 13-15 8 0 13 6 13 15v111c0 7-5 14-13 14s-13-7-13-14z m-83 0v-56c0-7 6-14 13-14 7 0 13 5 13 14v56c0 7-6 14-13 14-6-1-13-7-13-14z m166 0v-56c0-7 6-14 13-14 8 0 13 5 13 14v56c0 7-5 14-13 14-7-1-13-7-13-14z" horiz-adv-x="875" />
<glyph glyph-name="moderate-snow" unicode="&#xe80f;" d="m273 211h331c80 0 151 79 151 170 0 87-65 163-142 167-18 66-78 113-146 113-72 0-132-51-148-120-14 4-30 7-45 7-80 0-151-78-151-169-2-89 68-168 150-168z m0 310c17 0 35-5 51-12 4-1 9-1 13 0 4 3 6 6 7 10 8 64 60 113 123 113 58 0 109-43 121-103 1-7 7-11 14-11 2 0 2 0 3 0 72 0 124-75 124-140s-52-140-124-140h-332c-72 0-124 74-124 140 0 68 52 143 124 143z m68-422c0-7 6-14 13-14 8 0 14 5 14 14 0 9-6 15-14 15-7 0-13-8-13-15z m137 0c0-7 6-14 13-14 8 0 14 5 14 14 0 9-6 15-14 15-7 0-13-8-13-15z m-27 57c0 7-6 15-13 15s-14-6-14-15c0-9 6-14 14-14s13 5 13 14z m110 0c0-7 6-14 14-14s13 5 13 14c0 9-6 15-13 15-8-2-14-8-14-15z m-137-112c0 7-5 14-13 14-7 0-13-5-13-14 0-9 6-15 13-15 6 0 13 6 13 15z m-138 112c0-7 6-14 13-14s13 5 13 14c0 9-6 15-13 15-7-2-13-8-13-15z" horiz-adv-x="875" />
<glyph glyph-name="rainstorm" unicode="&#xe810;" d="m741 427c0 83-64 153-142 158-17 64-77 111-144 111-70 0-130-50-146-118-14 4-30 7-45 7-82 0-150-73-150-159s68-159 150-159h327c81 1 150 74 150 160z m-598 0c0 72 55 132 122 132 18 0 34-5 52-12 4-2 8-2 11 0 5 1 6 6 8 10 7 63 58 111 120 111 59 0 108-42 120-99 2-6 6-10 13-12 2 0 2 0 3 0 67 0 123-60 123-131s-56-131-123-131h-327c-67 1-122 61-122 132z m435-204l-2-96c0-7 6-13 13-15 5 0 8 2 10 5 3 3 5 6 5 10l1 96c0 7-6 13-13 15-9 0-14-6-14-15z m-2-154v-40c0-7 6-13 13-14 5 0 8 1 10 4 3 3 5 6 5 10v40c0 7-6 13-13 14-9 0-15-7-15-14z m-63 169c-7 0-13-6-14-13l-2-97c0-7 6-13 13-14 5 0 8 1 11 4 3 3 4 6 4 10l1 97c0 5-5 13-13 13z m-16-169v-40c0-7 6-13 13-14 5 0 8 1 11 4 3 3 4 6 4 10v40c0 7-6 13-13 14-9 0-15-7-15-14z m-62 169c-8 0-14-6-15-13l-1-97c0-7 5-13 13-14 4 0 7 1 10 4 3 3 4 6 4 10l2 97c0 5-6 13-13 13z m-16-169v-40c0-7 5-13 13-14 4 0 7 1 10 4 3 3 4 6 4 10v40c0 7-6 13-13 14-7 2-14-7-14-14z m-151 169c-7 0-13-6-14-13l-2-97c0-7 6-13 13-14 5 0 8 1 11 4 3 3 4 6 4 10l1 97c0 5-5 13-13 13z m-16-169v-40c0-7 6-13 13-14 5 0 8 1 11 4 3 3 4 6 4 10v40c0 7-6 13-13 14-9 0-15-7-15-14z m104 169c-7 0-13-6-15-13l-1-97c0-7 6-13 13-14 4 0 7 1 10 4 3 3 5 6 5 10l1 97c0 5-6 13-13 13z m-16-169v-40c0-7 6-13 13-14 4 0 7 1 10 4s5 6 5 10v40c0 7-6 13-14 14-7 2-14-7-14-14z" horiz-adv-x="875" />
<glyph glyph-name="showers" unicode="&#xe811;" d="m226 120l-70-69c-6-6-6-15 0-19 3-3 6-4 10-4 3 0 8 1 10 4l70 69c6 5 6 14 0 19s-14 4-20 0z m112 0l-70-69c-5-6-5-15 0-19 3-3 6-4 11-4 4 0 7 1 10 4l70 69c6 5 6 14 0 19-8 4-16 4-21 0z m111 0l-70-69c-6-6-6-15 0-19 3-3 6-4 10-4 5 0 8 1 11 4l70 69c5 5 5 14 0 19-6 4-15 4-21 0z m111 0l-70-69c-6-6-6-15 0-19 3-3 6-4 10-4s8 1 10 4l70 69c6 5 6 14 0 19-5 4-14 4-20 0z m-306 51h334c84 0 153 67 153 150 0 35-13 65-32 92 33 30 54 73 54 118 0 87-73 159-162 159-69 0-131-44-153-108-72 0-132-50-148-117-14 5-30 8-46 8-85 0-153-68-153-151 0-84 68-151 153-151z m345 491c75 0 135-58 135-131 0-38-16-73-46-98-24 22-56 37-93 40-16 55-63 96-120 106 21 50 69 83 124 83z m-345-217c17 0 35-5 51-12 4-1 9-1 13 0 4 2 6 6 7 10 8 63 60 110 124 110 60 0 111-41 123-98 1-6 7-12 13-12 1 0 3 0 3 0 68 0 125-55 125-124s-55-124-125-124h-334c-69 0-126 56-126 124 0 70 57 126 126 126z" horiz-adv-x="875" />
<glyph glyph-name="snow-shower" unicode="&#xe812;" d="m407 117c0-8 6-15 13-15s13 6 13 15-6 14-13 14-13-7-13-14z m137 3c0-8 6-15 13-15s13 6 13 15-6 14-13 14-13-7-13-14z m-136-92c0 7-5 14-13 14-7 0-13-6-13-14 0-9 6-15 13-15 8 0 13 7 13 15z m-140 92c0-8 6-15 13-15s14 6 14 15-6 14-14 14c-5-1-13-7-13-14z m-8 43h334c84 0 153 69 153 152 0 35-13 67-32 92 33 31 54 73 54 118 0 89-73 160-162 160-69 0-132-45-153-109-72-1-132-50-148-117-14 5-30 8-46 8-85 0-154-69-154-152 2-83 70-152 154-152z m347 496c74 0 134-60 134-132 0-38-16-73-45-100-25 22-57 38-94 40-16 55-62 97-119 108 19 49 68 84 124 84z m-347-219c17 0 35-4 51-11 4-2 8-2 13 0s6 6 7 10c7 63 60 111 124 111 60 0 111-42 123-99 1-6 7-12 13-12 1 0 3 0 3 0 68 0 125-55 125-124s-55-124-125-124h-334c-69 0-126 56-126 124 2 69 57 125 126 125z" horiz-adv-x="875" />
<glyph glyph-name="snowstorm" unicode="&#xe813;" d="m602 553l-382-296 43-18h379l92 80 10 102-28 63-66 48-27-1-21 22z m152-162c0 84-64 156-143 162-17 65-77 112-146 112-71 0-131-50-147-118-15 4-31 7-45 7-82 0-152-74-152-162s69-163 150-163h331c82 0 152 74 152 162z m-607 0c0 71 59 134 124 134 18 0 35-4 51-12 5-1 9-1 13 0 5 3 6 6 8 11 7 64 60 110 122 110 59 0 110-42 121-100 2-8 8-12 15-12 1 0 1 0 3 0 65 0 124-63 124-134s-59-134-124-134h-333c-65 3-124 65-124 137z m426-350c0-7 6-15 13-15s13 6 13 15-5 14-13 14c-7-1-13-7-13-14z m-294 64c0-7 5-15 13-15 7 0 13 6 13 15s-6 15-13 15c-8 0-13-6-13-15z m72 29c0-7 6-14 14-14 7 0 13 5 13 14 0 9-6 15-13 15-8 0-14-6-14-15z m146 0c0-7 6-14 13-14s14 5 14 14c0 9-6 15-14 15s-13-6-13-15z m-146-73c0-7 6-14 14-14 7 0 13 6 13 14s-6 15-13 15c-8 0-14-6-14-15z m146 0c0-7 6-14 13-14s14 6 14 14-6 15-14 15-13-6-13-15z m-68 44c0-7 6-15 13-15 7 0 13 6 13 15s-6 15-13 15c-7 0-13-6-13-15z m27 61c0 8-5 15-13 15s-13-6-13-15 6-14 13-14 13 6 13 14z m117 0c0-7 6-14 13-14s13 6 13 14-5 15-13 15-13-6-13-15z m-117-124c0 8-5 15-13 15s-13-6-13-15 6-14 13-14 13 6 13 14z m-177 124c0-7 5-14 13-14 7 0 13 6 13 14s-6 15-13 15c-8 0-13-6-13-15z m0-125c0-7 5-15 13-15 7 0 13 6 13 15s-6 14-13 14c-8 0-13-5-13-14z m294 64c0-7 6-15 13-15s13 6 13 15-5 15-13 15-13-6-13-15z" horiz-adv-x="875" />
<glyph glyph-name="stormy" unicode="&#xe814;" d="m735 426c0 83-64 153-141 157-18 65-78 111-145 111-70 0-130-49-146-118-14 4-30 7-45 7-82 0-150-73-150-159s68-159 150-159h327c81 3 150 75 150 161z m-598 0c0 71 56 131 123 131 17 0 33-4 51-12 4-1 8-1 11 0 5 2 6 6 8 11 7 62 58 110 121 110 58 0 108-42 119-99 2-6 6-10 13-11 2 0 2 0 3 0 67 0 123-60 123-132s-56-131-123-131h-326c-67 3-123 63-123 133z m435-203l-2-96c0-7 6-13 13-15 5 0 8 2 11 5s4 6 4 10l1 96c0 7-5 13-13 15-7 1-14-8-14-15z m-3-154v-40c0-7 6-13 13-14 4 0 7 1 10 4 3 3 4 6 4 10v40c0 7-5 13-13 14-7 2-14-7-14-14z m-61 167c-8 0-14-6-15-13l-1-96c0-7 5-13 13-15 4 0 7 2 10 5s4 6 4 10l2 96c0 7-6 13-13 13z m-17-167v-40c0-7 6-13 14-14 4 0 7 1 10 4s4 6 4 10v40c0 7-6 13-13 14-9-1-15-7-15-14z m-62 167c-8 0-13-6-15-13l-1-96c0-7 6-13 13-15 4 0 7 2 10 5 3 3 4 6 4 10l2 96c0 7-6 13-13 13z m-16-167v-40c0-7 6-13 13-14 4 0 7 1 10 4 3 3 4 6 4 10v40c0 7-5 13-13 14-8-1-14-7-14-14z m-150 167c-8 0-14-6-15-13v-96c0-7 6-13 13-15 4 0 7 2 10 5 3 3 5 6 5 10l1 96c-1 7-7 13-14 13z m-17-167v-40c0-7 6-13 14-14 4 0 7 1 10 4 3 3 4 6 4 10v40c0 7-6 13-13 14-7 2-15-7-15-14z m104 167c-7 0-13-6-15-13v-96c0-7 6-13 14-15 4 0 7 2 10 5 3 3 4 6 4 10l2 96c-2 7-8 13-15 13z m-16-167v-40c0-7 6-13 13-14 4 0 7 1 10 4s5 6 5 10v40c0 7-6 13-13 14-9-1-15-7-15-14z m244 522l-383-295 43-19h379l92 82 10 102-29 63-66 46-28-1-18 22z" horiz-adv-x="875" />
<glyph glyph-name="sunny" unicode="&#xe815;" d="m433 130c121 0 220 99 220 220s-99 220-220 220-220-99-220-220 99-220 220-220z m0 413c107 0 193-87 193-193s-86-192-193-192-192 86-192 192 86 193 192 193z m-9 96c8 0 14 6 14 13v111c0 7-6 13-14 13-7 0-13-6-13-13v-111c-1-7 5-13 13-13z m14-702v111c0 7-6 13-14 13-7 0-13-6-13-13v-111c0-7 6-13 13-13 8-1 14 6 14 13z m-289 400c0 7-6 13-13 13h-111c-7 0-13-6-13-13s6-13 13-13h111c7-2 13 4 13 13z m701 13h-111c-7 0-13-6-13-13s6-13 13-13h111c8 0 13 6 13 13s-5 13-13 13z m-695-302l77 77c6 6 6 15 0 19-6 6-15 6-19 0l-77-77c-6-6-6-14 0-19 3-3 5-4 10-4 3 0 7 1 9 4z m497 502c3 0 7 1 10 4l77 78c6 5 6 14 0 18-5 5-14 6-19 0l-78-75c-6-6-6-15 0-19 3-5 6-6 10-6z m10-404c-6 6-14 6-19 0-4-6-6-15 0-19l77-77c3-3 6-5 11-5 3 0 7 2 10 5 6 5 6 14 0 19l-79 77z m-449 408c3-3 6-4 10-4 3 0 7 1 10 4 6 6 6 15 0 19l-77 77c-6 6-15 6-19 0-4-5-6-14 0-18l76-78z" horiz-adv-x="875" />
<glyph glyph-name="thunderstorm" unicode="&#xe816;" d="m595 579c-17 66-77 111-146 111-71 0-131-50-147-118-15 4-31 7-45 7-82 0-152-73-152-160s70-161 152-161h331c81 0 151 73 151 161-1 84-65 156-144 160z m-9-293h-329c-66 0-124 63-124 133s58 132 124 132c17 0 35-4 51-11 4-2 9-2 13 0 4 1 6 5 7 10 7 63 60 111 123 111 58 0 109-43 121-101 1-6 7-12 13-12 1 0 3 0 3 0 65 0 124-62 124-132-2-67-59-130-126-130z m-288-280c2-3 5-5 10-5 3 0 7 2 10 5l87 90c5 5 5 10 3 15-1 6-7 9-13 9h-33l55 51c6 5 6 14 0 19-6 5-14 5-19 0l-81-73c-5-5-6-11-3-15 3-4 7-9 13-9h35l-64-67c-6-7-6-14 0-20z m195 106l69 69c5 6 5 14 0 19-6 4-15 6-19 0l-69-69c-6-6-6-14 0-19 3-3 6-4 10-4 3 0 6 1 9 4z m-276 0l69 69c6 6 6 14 0 19-6 4-15 6-19 0l-69-69c-5-6-5-14 0-19 3-3 6-4 11-4 2 0 7 1 8 4z" horiz-adv-x="875" />
<glyph glyph-name="typhoon" unicode="&#xe817;" d="m424 305c0 7-5 13-13 13h-331c-7 0-13-6-13-13s6-13 13-13h331c8-2 13 6 13 13z m232 205c-7 0-13-5-13-13 0-7 6-13 13-13 66 0 126-65 126-137 0-65-53-137-124-137h-330c-7 0-13-6-13-13s6-13 13-13h330c80 0 151 77 151 165 0 83-73 161-153 161z m-35-172c0 51-41 94-89 94-7 0-13-6-13-13s6-14 13-14c34 0 62-30 62-65 0-34-28-76-62-76h-342c-8 0-14-6-14-13 0-7 6-13 14-13h342c50-2 89 54 89 100z" horiz-adv-x="875" />
<glyph glyph-name="wintry-mix" unicode="&#xe818;" d="m608 576c-17 66-77 111-144 111-70 0-130-50-146-118-15 4-31 7-45 7-82 0-150-73-150-160s68-161 150-161h326c82 0 151 73 151 161 1 84-63 156-142 160z m-7-293h-327c-65 0-122 63-122 133s57 132 122 132c18 0 34-4 50-11 4-2 9-2 11 0 5 3 6 6 8 10 7 63 58 111 121 111 58 0 108-43 119-101 2-6 8-12 13-12 2 0 3 0 3 0 66 0 123-62 123-132 1-67-56-130-121-130z m-171-80l-80-75c-4-4-6-10-3-14 2-6 7-9 13-9h35l-64-67c-6-6-4-15 0-19 3-3 6-4 9-4 3 0 7 1 10 4l86 90c4 5 4 11 3 15-1 4-7 7-12 7h-33l54 51c6 6 6 15 0 19-3 8-12 8-18 2z m-138-111c7 0 13-7 13-15s-6-14-13-14c-8 0-13 6-13 14s5 15 13 15z m207 89c7 0 13-7 13-15s-6-14-13-14c-7 0-13 6-13 14s6 15 13 15z m111 22l-69-69c-6-6-6-14 0-19 3-3 6-4 10-4 3 0 8 1 10 4l69 69c6 6 6 14 0 19-7 6-16 6-20 0z m-129-111c8 0 13-7 13-15s-5-14-13-14c-7 0-13 6-13 14s6 15 13 15z m-178 111l-68-69c-6-6-6-14 0-19 3-3 6-4 10-4 3 0 7 1 10 4l69 69c6 6 6 14 0 19s-16 6-21 0z" horiz-adv-x="875" />
<glyph glyph-name="password" unicode="&#xe819;" d="m797 447v106c0 153-133 275-297 275s-297-122-297-275v-106h-86v-180c0-220 172-398 383-398 211 0 383 178 383 398v180h-86z m-511 106c0 105 97 191 214 191s214-86 214-191v-106h-428v106z m514-286c0-173-136-314-300-314s-300 141-300 314v97h600v-97z" horiz-adv-x="1000" />
<glyph glyph-name="email" unicode="&#xe81a;" d="m56 697v-722h888v722c0 0-888 0-888 0z m833-666h-778v611h778l0-611 0 0z m-697 97l152 255 156-77 156 77 152-255 48 28-150 252 138 70-25 50-319-161-319 161-25-50 138-70-152-252 50-28z" horiz-adv-x="1000" />
<glyph glyph-name="position" unicode="&#xe81b;" d="m61-56h881v362h-881v-362z m467 306c0-17-11-28-28-28s-28 11-28 28h56z m-411 0h300c0-47 36-83 83-83s83 36 83 83h303v-250h-769v250z m300 389c0 47 36 83 83 83s83-36 83-83v-56h111v56h-55c0 78-61 139-136 139-75 0-136-61-136-139h-56v-56h106c0 0 0 56 0 56z m-356-111v-167h56v111h769v-111h56v167h-881z" horiz-adv-x="1000" />
<glyph glyph-name="telephone" unicode="&#xe81c;" d="m283 125c-166 167-216 403-114 539l-44 33c-122-161-69-422 119-611 120-119 264-180 398-180 77 0 152 22 211 69l-36 42c-131-106-367-59-534 108z m409 203l-78-78c-31-31-70-44-108-44-42 0-81 16-109 44-61 61-61 158 0 219l78 78-250 250-42-39 211-211-38-39c-84-83-84-216 0-297 38-39 91-61 150-61 55 0 108 22 150 61l38 39 212-211 38 39-252 250z" horiz-adv-x="1000" />
<glyph glyph-name="user" unicode="&#xe81d;" d="m846 32l-114 128 0 0v3c-85-24-185-39-290-39-107 0-209 15-294 41v-2l-2 0-114-129 65-61 80 90c81-19 170-29 263-29 90 0 180 10 257 29l81-90 68 59z m-408 622c99 0 179-80 179-180s-80-180-179-180-180 80-180 180 80 180 180 180m0 73c-141 0-253-114-253-253s114-253 253-253 252 114 252 253-111 253-252 253l0 0z" horiz-adv-x="875" />
<glyph glyph-name="work-unit" unicode="&#xe81e;" d="m194 593v-97h195v97h-195z m171-73h-146v49h146v-49z m-316-559h194c0 56 0 112 0 170h95c0-56 0-112 0-170h197c0 168 0 336 0 503 0 59 0 119 0 178h-49v-632h-97v170h-195v-170h-97v680h365 73v49h-486v-778z m559 316v-97h97v97h-97z m70-73h-46v49h46v-49z m-70 195v-98h97v98h-97z m70-71h-46v49h46v-49z m-95 216v-48h195v-486h-195v-49h243v583h-243z m-389-121v-97h195v97h-195z m171-71h-146v47h146v-47z" horiz-adv-x="875" />
<glyph glyph-name="menu-1" unicode="&#xe81f;" d="m200 650v-100h600v100h-600z m0-350h600v100h-600v-100z m0-250h600v100h-600v-100z" horiz-adv-x="1000" />
<glyph glyph-name="icon_1" unicode="&#xe820;" d="m128 154c-37 58-58 124-58 196 0 203 165 368 368 368 71 0 138-21 196-58l38 38c-68 46-149 72-234 72-233 0-420-187-420-420 0-86 26-166 71-234l39 38z m675 404l-38-38c26-51 42-109 42-168 0-203-165-368-368-368-61 0-119 16-168 42l-38-38c61-35 133-55 208-55 233 0 420 188 420 421-3 71-23 143-58 204z" horiz-adv-x="875" />
<glyph glyph-name="angle-left" unicode="&#xe821;" d="m25 314q0 8 6 13l260 260q5 6 13 6t12-6l28-28q6-5 6-13t-6-12l-219-220 219-219q6-6 6-13t-6-13l-28-28q-5-5-12-5t-13 5l-260 260q-6 6-6 13z" horiz-adv-x="357.1" />
<glyph glyph-name="angle-right" unicode="&#xe822;" d="m7 82q0 7 6 13l219 219-219 220q-6 5-6 12t6 13l28 28q5 6 13 6t12-6l260-260q6-5 6-13t-6-13l-260-260q-5-5-12-5t-13 5l-28 28q-6 6-6 13z" horiz-adv-x="357.1" />
<glyph glyph-name="angle-up" unicode="&#xe823;" d="m43 189q0 8 6 13l260 260q5 6 12 6t13-6l260-260q6-5 6-13t-6-13l-28-27q-5-6-12-6t-13 6l-220 219-219-219q-5-6-13-6t-13 6l-27 27q-6 6-6 13z" horiz-adv-x="642.9" />
<glyph glyph-name="angle-down" unicode="&#xe824;" d="m43 439q0 8 6 13l27 28q6 6 13 6t13-6l219-219 220 219q5 6 13 6t12-6l28-28q6-5 6-13t-6-13l-260-260q-5-5-13-5t-12 5l-260 260q-6 6-6 13z" horiz-adv-x="642.9" />
<glyph glyph-name="down-open-big" unicode="&#xe825;" d="m63 570l370-356 372 356q22 26 48 0 26-22 0-48l-396-392q-22-22-48 0l-396 392q-26 26 0 48 24 24 50 0z" horiz-adv-x="866" />
<glyph glyph-name="left-open-big" unicode="&#xe826;" d="m452-20q26-26 0-48-26-26-48 0l-392 394q-24 24 0 50l392 394q22 26 48 0 26-22 0-48l-358-372z" horiz-adv-x="465" />
<glyph glyph-name="right-open-big" unicode="&#xe827;" d="m13-20l358 370-358 372q-26 26 0 48 26 26 48 0l392-394q24-26 0-50l-392-394q-22-26-48 0-26 22 0 48z" horiz-adv-x="465" />
<glyph glyph-name="up-open-big" unicode="&#xe828;" d="m804 130l-372 358-370-358q-26-22-50 0-24 24 0 50l396 390q26 26 48 0l396-390q24-26 0-50-26-22-48 0z" horiz-adv-x="864" />
<glyph glyph-name="fire" unicode="&#xe829;" d="m246 502c0 0 29-11 34-34 11-47-18-79-68-168-65-120 19-291 168-304 147-10 301 87 236 270-40 113 68 202 68 202s-81 16-134-34c-78-71 108 147-167 270 0 0 49-84-35-202 0 0-102 0-102 0z" horiz-adv-x="875" />
<glyph glyph-name="ok" unicode="&#xe82a;" d="m346 62l-295 295 80 77 215-215 398 397 80-76-478-478z" horiz-adv-x="875" />
<glyph glyph-name="sov" unicode="&#xe82b;" d="m788 634c-49 0-88-39-88-87 0-18 4-35 13-48l-144-215h-5-4l-136 215c9 13 14 30 14 48 0 48-40 87-88 87s-87-39-87-87c0-18 4-31 13-44l-149-227c-13 4-26 8-39 8-49 0-88-39-88-87s39-88 88-88 87 40 87 88c0 4 0 13 0 17l162 245c4 0 9 0 13 0s9 0 13 0l140-205c-13-18-22-35-22-57 0-48 40-88 88-88 48 0 87 40 87 88 0 22-8 39-22 57l140 205c5 0 9 0 14 0 48 0 87 40 87 88s-39 87-87 87z" horiz-adv-x="875" />
<glyph glyph-name="grp" unicode="&#xe82c;" d="m459 678c-35 0-65-30-65-65s30-66 65-66c97 0 175-79 175-175s-78-175-175-175-175 79-175 175c0 35-30 66-65 66s-66-31-66-66c0-171 136-306 306-306s307 135 307 306-136 306-307 306z" horiz-adv-x="875" />
<glyph glyph-name="zydata" unicode="&#xe82d;" d="m425 25h150v600h-150v-600z m300 450v-450h150v450h-150z m-600-450h150v250h-150v-250z" horiz-adv-x="1000" />
<glyph glyph-name="khhybx" unicode="&#xe82e;" d="m275-25h200v250h-200v-250z m0 300h200v200h-200v-200z m0 250h200v200h-200v-200z m250-550h200v150h-200v-150z m0 450v-250h200v250h-200z" horiz-adv-x="1000" />
<glyph glyph-name="bgdyfb" unicode="&#xe82f;" d="m725 475c55 0 100 45 100 100s-45 100-100 100c-55 0-100-45-100-100s45-100 100-100z m0-200c-55 0-100-45-100-100 0-55 45-100 100-100 55 0 100 45 100 100 0 55-45 100-100 100z m-400 0c-55 0-100-45-100-100 0-55 45-100 100-100s100 45 100 100c0 55-45 100-100 100z m0 400c-55 0-100-45-100-100s45-100 100-100 100 45 100 100-45 100-100 100z" horiz-adv-x="1000" />
<glyph glyph-name="mtyjnl" unicode="&#xe830;" d="m223 328c0 48 18 92 44 127l-53 79c-48-53-78-127-78-206 0-74 26-144 70-197l57 75c-27 35-40 74-40 122z m215 350c-62 0-119-17-171-44l101-144c21 9 43 13 70 13 96 0 175-79 175-175s-79-175-175-175c-27 0-53 5-75 18l-105-140c53-31 114-53 180-53 192 0 350 158 350 350s-158 350-350 350z" horiz-adv-x="875" />
<glyph glyph-name="mtmbszfe" unicode="&#xe831;" d="m600 275h-200c-85 0-150-65-150-150v-50h500v50c0 85-65 150-150 150z m-100 100c85 0 150 65 150 150s-65 150-150 150-150-65-150-150 65-150 150-150z" horiz-adv-x="1000" />
<glyph glyph-name="mthygzd" unicode="&#xe832;" d="m200 650v-100h600v100h-600z m0-350h600v100h-600v-100z m0-250h600v100h-600v-100z" horiz-adv-x="1000" />
<glyph glyph-name="mthyfe" unicode="&#xe833;" d="m500 750c-220 0-400-180-400-400s180-400 400-400 400 180 400 400-180 400-400 400z m0-700c-165 0-300 135-300 300s135 300 300 300 300-135 300-300-135-300-300-300z" horiz-adv-x="1000" />
<glyph glyph-name="trash" unicode="&#xe834;" d="m0 582v36q0 8 5 13t13 5h172l39 93q9 21 31 35t44 15h178q22 0 44-15t30-35l39-93h173q8 0 13-5t5-13v-36q0-8-5-13t-13-5h-54v-529q0-46-26-80t-63-34h-464q-37 0-63 33t-27 79v531h-53q-8 0-13 5t-5 13z m143-547q0-12 4-22t8-15 6-5h464q2 0 6 5t8 15 4 22v529h-500v-529z m71 83v321q0 8 5 13t13 5h36q8 0 13-5t5-13v-321q0-8-5-13t-13-5h-36q-8 0-13 5t-5 13z m54 518h250l-27 65q-4 5-9 6h-177q-6-1-10-6z m89-518v321q0 8 5 13t13 5h36q8 0 13-5t5-13v-321q0-8-5-13t-13-5h-36q-8 0-13 5t-5 13z m143 0v321q0 8 5 13t13 5h36q7 0 12-5t5-13v-321q0-8-5-13t-12-5h-36q-8 0-13 5t-5 13z" horiz-adv-x="785.7" />
<glyph glyph-name="mtfebb" unicode="&#xe835;" d="m75 225h150v200h-150v-200z m200 0h150v200h-150v-200z m200-100h250v400h-250v-400z m300 300v-200h150v200h-150z" horiz-adv-x="1000" />
<glyph glyph-name="spin1" unicode="&#xe836;" d="m496 850c-176 0-331-90-421-226-18-27-33-55-46-85-12-29-21-60-28-92 0 0 0-1 0-1l0 0 0 0c0-1 0-2 0-2 0-7 5-12 11-12l101 0c5 0 10 4 11 9 29 113 109 206 214 253 20 10 41 17 63 23 31 7 62 11 95 11l0 0 0 0 0 0c25 0 50-2 74-7 5-1 10-2 14-3 6-1 10-3 14-4l0 0c5-1 11 1 13 6l51 87c0 0 1 1 1 2 2 6-1 13-7 15-22 7-43 13-65 17-5 1-9 1-13 2-27 5-54 7-82 7l0 0 0 0z m327-114c-5 0-9-2-11-6l-50-87c-3-4-2-10 2-14 29-29 54-63 73-101 4-7 7-14 11-22 19-46 30-97 30-151l0 0 0 0c0-77-22-149-62-209-7-11-15-23-24-34-9-10-18-20-28-30l0 0 0 0 0 0c-4-4-5-10-2-14l50-87c0-1 1-2 2-3 4-5 11-5 16-1 58 52 104 117 134 190 6 14 11 29 15 44 14 46 21 94 21 144 0 108-34 209-92 291-11 16-23 31-37 46-13 14-26 28-41 41l0 0c-1 1-1 1-2 1-2 1-4 2-5 2z m-811-468l0 0c-1 0-2 0-3 0-6-1-10-8-9-14 34-166 149-302 302-366 30-12 61-21 93-28 32-6 66-10 100-10l0 0 0 0c40 0 79 5 117 14 7 1 14 3 22 5 6 2 13 5 20 7 1 0 2 1 3 1 6 3 8 10 4 16l-50 87c-3 5-8 7-13 6-14-4-28-7-42-9-3-1-6-1-8-2-18-2-35-3-53-3l0 0 0 0c-128 0-242 63-311 160-1 0-1 0-1 0-13 19-25 40-35 61-10 21-18 43-24 65-1 6-6 10-11 10l-101 0z" horiz-adv-x="1000" />
<glyph glyph-name="close" unicode="&#xe840;" d="m857 743l-26 26-393-393-393 393-27-26 393-393-393-393 27-26 393 395 392-395 27 26-396 393 396 393z" horiz-adv-x="875" />
<glyph glyph-name="turn" unicode="&#xe841;" d="m473 709l-92-88 201-183h-538v-132h551l-210-201 88-101 376 342-376 363z" horiz-adv-x="875" />
</font>
</defs>
</svg>
