<?xml version="1.0" encoding="utf-8"?>
<!-- Generator: Adobe Illustrator 17.0.0, SVG Export Plug-In . SVG Version: 6.00 Build 0)  -->
<!DOCTYPE svg PUBLIC "-//W3C//DTD SVG 1.1//EN" "http://www.w3.org/Graphics/SVG/1.1/DTD/svg11.dtd">
<svg version="1.1" id="图层_1" xmlns="http://www.w3.org/2000/svg" xmlns:xlink="http://www.w3.org/1999/xlink" x="0px" y="0px"
	 width="32px" height="32px" viewBox="0 0 32 32" enable-background="new 0 0 32 32" xml:space="preserve">
<g>
	<path fill="#CCCCCC" d="M16,0C7.164,0,0,7.164,0,16s7.164,16,16,16s16-7.164,16-16S24.836,0,16,0z M16,30C8.28,30,2,23.72,2,16
		S8.28,2,16,2s14,6.28,14,14S23.72,30,16,30z M16,12c-1.104,0-2,0.896-2,2v10c0,1.104,0.896,2,2,2s2-0.896,2-2V14
		C18,12.896,17.104,12,16,12z M14,8.032c0,1.105,0.895,2,2,2s2-0.895,2-2s-0.895-2-2-2S14,6.927,14,8.032z"/>
</g>
</svg>
